{
    "accessors": {
        "accessor_106": {
            "bufferView": "bufferView_129",
            "byteOffset": 0,
            "byteStride": 0,
            "componentType": 5123,
            "count": 516,
            "type": "SCALAR"
        },
        "accessor_109": {
            "bufferView": "bufferView_129",
            "byteOffset": 1032,
            "byteStride": 0,
            "componentType": 5123,
            "count": 180,
            "type": "SCALAR"
        },
        "accessor_112": {
            "bufferView": "bufferView_129",
            "byteOffset": 1392,
            "byteStride": 0,
            "componentType": 5123,
            "count": 27900,
            "type": "SCALAR"
        },
        "accessor_115": {
            "bufferView": "bufferView_129",
            "byteOffset": 57192,
            "byteStride": 0,
            "componentType": 5123,
            "count": 498,
            "type": "SCALAR"
        },
        "accessor_118": {
            "bufferView": "bufferView_129",
            "byteOffset": 58188,
            "byteStride": 0,
            "componentType": 5123,
            "count": 42,
            "type": "SCALAR"
        },
        "accessor_121": {
            "bufferView": "bufferView_129",
            "byteOffset": 58272,
            "byteStride": 0,
            "componentType": 5123,
            "count": 35520,
            "type": "SCALAR"
        },
        "accessor_123": {
            "bufferView": "bufferView_130",
            "byteOffset": 0,
            "byteStride": 12,
            "componentType": 5126,
            "count": 33930,
            "max": [
                1.7641199827194214,
                0.42105498909950256,
                1.3870899677276611
            ],
            "min": [
                -0.35645800828933716,
                -0.5940930247306824,
                0.004614709876477718
            ],
            "type": "VEC3"
        },
        "accessor_125": {
            "bufferView": "bufferView_130",
            "byteOffset": 407160,
            "byteStride": 12,
            "componentType": 5126,
            "count": 33930,
            "max": [
                1,
                1,
                1
            ],
            "min": [
                -1,
                -1,
                -1
            ],
            "type": "VEC3"
        },
        "accessor_127": {
            "bufferView": "bufferView_130",
            "byteOffset": 814320,
            "byteStride": 8,
            "componentType": 5126,
            "count": 33930,
            "max": [
                1.060289978981018,
                1.4206640720367432
            ],
            "min": [
                -1.060289978981018,
                0
            ],
            "type": "VEC2"
        }
    },
    "animations": {},
    "asset": {
        "generator": "collada2gltf@",
        "premultipliedAlpha": true,
        "profile": "WebGL 1.0.2",
        "version": 0.800000011920929
    },
    "bufferViews": {
        "bufferView_129": {
            "buffer": "input",
            "byteLength": 129312,
            "byteOffset": 0,
            "target": 34963
        },
        "bufferView_130": {
            "buffer": "input",
            "byteLength": 1085760,
            "byteOffset": 129312,
            "target": 34962
        }
    },
    "buffers": {
        "input": {
            "byteLength": 1215072,
            "type": "arraybuffer",
            "uri": "data:application/octet-stream;base64,"
        }
    },
    "lights": {
        "EnvironmentAmbientLight": {
            "ambient": {
                "color": [
                    0,
                    0,
                    0
                ]
            },
            "type": "ambient"
        }
    },
    "materials": {
        "Material__26": {
            "instanceTechnique": {
                "technique": "technique0",
                "values": {
                    "ambient": [
                        0.7686280012130737,
                        0.8352940082550049,
                        0.8470590114593506,
                        1
                    ],
                    "diffuse": [
                        0.7686280012130737,
                        0.8352940082550049,
                        0.8470590114593506,
                        1
                    ],
                    "emission": [
                        0,
                        0,
                        0,
                        1
                    ],
                    "shininess": 10,
                    "specular": [
                        0.9000000357627869,
                        0.9000000357627869,
                        0.9000000357627869,
                        1
                    ]
                }
            },
            "name": "Material__26"
        },
        "Material__26_1": {
            "instanceTechnique": {
                "technique": "technique0",
                "values": {
                    "ambient": [
                        0.7686280012130737,
                        0.8352940082550049,
                        0.8470590114593506,
                        1
                    ],
                    "diffuse": [
                        0.7686280012130737,
                        0.8352940082550049,
                        0.8470590114593506,
                        1
                    ],
                    "emission": [
                        0,
                        0,
                        0,
                        1
                    ],
                    "shininess": 10,
                    "specular": [
                        0.9000000357627869,
                        0.9000000357627869,
                        0.9000000357627869,
                        1
                    ]
                }
            },
            "name": "Material__26"
        },
        "Material__26_2": {
            "instanceTechnique": {
                "technique": "technique0",
                "values": {
                    "ambient": [
                        0.7686280012130737,
                        0.8352940082550049,
                        0.8470590114593506,
                        1
                    ],
                    "diffuse": [
                        0.7686280012130737,
                        0.8352940082550049,
                        0.8470590114593506,
                        1
                    ],
                    "emission": [
                        0,
                        0,
                        0,
                        1
                    ],
                    "shininess": 10,
                    "specular": [
                        0.9000000357627869,
                        0.9000000357627869,
                        0.9000000357627869,
                        1
                    ]
                }
            },
            "name": "Material__26"
        },
        "Material__27": {
            "instanceTechnique": {
                "technique": "technique0",
                "values": {
                    "ambient": [
                        0.1333329975605011,
                        0.19215700030326843,
                        0.2941179871559143,
                        1
                    ],
                    "diffuse": [
                        0.1333329975605011,
                        0.19215700030326843,
                        0.2941179871559143,
                        1
                    ],
                    "emission": [
                        0,
                        0,
                        0,
                        1
                    ],
                    "shininess": 10,
                    "specular": [
                        0.9000000357627869,
                        0.9000000357627869,
                        0.9000000357627869,
                        1
                    ]
                }
            },
            "name": "Material__27"
        },
        "_7_-_Default": {
            "instanceTechnique": {
                "technique": "technique0",
                "values": {
                    "ambient": [
                        0.3294120132923126,
                        0.36470600962638855,
                        0.4352940022945404,
                        1
                    ],
                    "diffuse": [
                        0.3294120132923126,
                        0.36470600962638855,
                        0.4352940022945404,
                        1
                    ],
                    "emission": [
                        0,
                        0,
                        0,
                        1
                    ],
                    "shininess": 50,
                    "specular": [
                        0.9000000357627869,
                        0.9000000357627869,
                        0.9000000357627869,
                        1
                    ]
                }
            },
            "name": "_7_-_Default"
        },
        "_8_-_Default": {
            "instanceTechnique": {
                "technique": "technique0",
                "values": {
                    "ambient": [
                        0.23137299716472626,
                        0.2705880105495453,
                        0.35294100642204285,
                        1
                    ],
                    "diffuse": [
                        0.23137299716472626,
                        0.2705880105495453,
                        0.35294100642204285,
                        1
                    ],
                    "emission": [
                        0,
                        0,
                        0,
                        1
                    ],
                    "shininess": 50,
                    "specular": [
                        0.9000000357627869,
                        0.9000000357627869,
                        0.9000000357627869,
                        1
                    ]
                }
            },
            "name": "_8_-_Default"
        }
    },
    "meshes": {
        "geom-Box001": {
            "name": "Box001",
            "primitives": [
                {
                    "attributes": {
                        "NORMAL": "accessor_125",
                        "POSITION": "accessor_123",
                        "TEXCOORD_0": "accessor_127"
                    },
                    "indices": "accessor_106",
                    "material": "Material__26_2",
                    "primitive": 4
                },
                {
                    "attributes": {
                        "NORMAL": "accessor_125",
                        "POSITION": "accessor_123",
                        "TEXCOORD_0": "accessor_127"
                    },
                    "indices": "accessor_109",
                    "material": "_8_-_Default",
                    "primitive": 4
                },
                {
                    "attributes": {
                        "NORMAL": "accessor_125",
                        "POSITION": "accessor_123",
                        "TEXCOORD_0": "accessor_127"
                    },
                    "indices": "accessor_112",
                    "material": "_7_-_Default",
                    "primitive": 4
                },
                {
                    "attributes": {
                        "NORMAL": "accessor_125",
                        "POSITION": "accessor_123",
                        "TEXCOORD_0": "accessor_127"
                    },
                    "indices": "accessor_115",
                    "material": "Material__26",
                    "primitive": 4
                },
                {
                    "attributes": {
                        "NORMAL": "accessor_125",
                        "POSITION": "accessor_123",
                        "TEXCOORD_0": "accessor_127"
                    },
                    "indices": "accessor_118",
                    "material": "Material__26_1",
                    "primitive": 4
                },
                {
                    "attributes": {
                        "NORMAL": "accessor_125",
                        "POSITION": "accessor_123",
                        "TEXCOORD_0": "accessor_127"
                    },
                    "indices": "accessor_121",
                    "material": "Material__27",
                    "primitive": 4
                }
            ]
        }
    },
    "nodes": {
        "node-Box001": {
            "children": [
                "node_2"
            ],
            "matrix": [
                1,
                0,
                0,
                0,
                0,
                1,
                0,
                0,
                0,
                0,
                1,
                0,
                0,
                0,
                0.800000011920929,
                1
            ],
            "name": "Box001"
        },
        "node_0": {
            "children": [],
            "light": "EnvironmentAmbientLight",
            "matrix": [
                1,
                0,
                0,
                0,
                0,
                1,
                0,
                0,
                0,
                0,
                1,
                0,
                0,
                0,
                0,
                1
            ],
            "name": "EnvironmentAmbientLight"
        },
        "node_2": {
            "children": [],
            "matrix": [
                1,
                0,
                0,
                0,
                0,
                1,
                0,
                0,
                0,
                0,
                1,
                0,
                -0.7038329839706421,
                0.08651920408010483,
                -0.6958529949188232,
                1
            ],
            "meshes": [
                "geom-Box001"
            ],
            "name": ""
        },
        "node_3": {
            "children": [
                "node_0",
                "node-Box001"
            ],
            "matrix": [
                1,
                0,
                0,
                0,
                0,
                0,
                -1,
                0,
                0,
                1,
                0,
                0,
                0,
                0,
                0,
                1
            ],
            "name": "Y_UP_Transform"
        }
    },
    "programs": {
        "program_0": {
            "attributes": [
                "a_normal",
                "a_position"
            ],
            "fragmentShader": "input0FS",
            "vertexShader": "input0VS"
        }
    },
    "scene": "defaultScene",
    "scenes": {
        "defaultScene": {
            "nodes": [
                "node_3"
            ]
        }
    },
    "shaders": {
        "input0FS": {
            "type": 35632,
            "uri": "data:text/plain;base64,"
        },
        "input0VS": {
            "type": 35633,
            "uri": "data:text/plain;base64,"
        }
    },
    "skins": {},
    "techniques": {
        "technique0": {
            "parameters": {
                "ambient": {
                    "type": 35666
                },
                "diffuse": {
                    "type": 35666
                },
                "emission": {
                    "type": 35666
                },
                "modelViewMatrix": {
                    "semantic": "MODELVIEW",
                    "type": 35676
                },
                "normal": {
                    "semantic": "NORMAL",
                    "type": 35665
                },
                "normalMatrix": {
                    "semantic": "MODELVIEWINVERSETRANSPOSE",
                    "type": 35675
                },
                "position": {
                    "semantic": "POSITION",
                    "type": 35665
                },
                "projectionMatrix": {
                    "semantic": "PROJECTION",
                    "type": 35676
                },
                "shininess": {
                    "type": 5126
                },
                "specular": {
                    "type": 35666
                }
            },
            "pass": "defaultPass",
            "passes": {
                "defaultPass": {
                    "details": {
                        "commonProfile": {
                            "extras": {
                                "doubleSided": false
                            },
                            "lightingModel": "Blinn",
                            "parameters": [
                                "ambient",
                                "diffuse",
                                "emission",
                                "modelViewMatrix",
                                "normalMatrix",
                                "projectionMatrix",
                                "shininess",
                                "specular"
                            ]
                        },
                        "type": "COLLADA-1.4.1/commonProfile"
                    },
                    "instanceProgram": {
                        "attributes": {
                            "a_normal": "normal",
                            "a_position": "position"
                        },
                        "program": "program_0",
                        "uniforms": {
                            "u_ambient": "ambient",
                            "u_diffuse": "diffuse",
                            "u_emission": "emission",
                            "u_modelViewMatrix": "modelViewMatrix",
                            "u_normalMatrix": "normalMatrix",
                            "u_projectionMatrix": "projectionMatrix",
                            "u_shininess": "shininess",
                            "u_specular": "specular"
                        }
                    },
                    "states": {
                        "enable": [
                            2884,
                            2929
                        ]
                    }
                }
            }
        }
    }
}