{
    "accessors": {
        "accessor_21": {
            "bufferView": "bufferView_29",
            "byteOffset": 0,
            "byteStride": 0,
            "componentType": 5123,
            "count": 8640,
            "type": "SCALAR"
        },
        "accessor_23": {
            "bufferView": "bufferView_30",
            "byteOffset": 0,
            "byteStride": 12,
            "componentType": 5126,
            "count": 8616,
            "max": [
                0.01165310014039278,
                0.03128340095281601,
                0.13313700258731842
            ],
            "min": [
                -0.2237589955329895,
                -0.8687019944190979,
                -0.1614989936351776
            ],
            "type": "VEC3"
        },
        "accessor_25": {
            "bufferView": "bufferView_30",
            "byteOffset": 103392,
            "byteStride": 12,
            "componentType": 5126,
            "count": 8616,
            "max": [
                1,
                1,
                1
            ],
            "min": [
                -1,
                -1,
                -1
            ],
            "type": "VEC3"
        },
        "accessor_27": {
            "bufferView": "bufferView_30",
            "byteOffset": 206784,
            "byteStride": 8,
            "componentType": 5126,
            "count": 8616,
            "max": [
                1,
                30.273399353027344
            ],
            "min": [
                -8.253429412841797,
                -0.23162996768951416
            ],
            "type": "VEC2"
        }
    },
    "animations": {},
    "asset": {
        "generator": "collada2gltf@",
        "premultipliedAlpha": true,
        "profile": "WebGL 1.0.2",
        "version": 0.800000011920929
    },
    "bufferViews": {
        "bufferView_29": {
            "buffer": "input",
            "byteLength": 17280,
            "byteOffset": 0,
            "target": 34963
        },
        "bufferView_30": {
            "buffer": "input",
            "byteLength": 275712,
            "byteOffset": 17280,
            "target": 34962
        }
    },
    "buffers": {
        "input": {
            "byteLength": 292992,
            "type": "arraybuffer",
            "uri": "data:application/octet-stream;base64,"
        }
    },
    "lights": {
        "EnvironmentAmbientLight": {
            "ambient": {
                "color": [
                    0,
                    0,
                    0
                ]
            },
            "type": "ambient"
        }
    },
    "materials": {
        "_1_-_Default": {
            "instanceTechnique": {
                "technique": "technique0",
                "values": {
                    "ambient": [
                        1,
                        1,
                        1,
                        1
                    ],
                    "diffuse": [
                        1,
                        1,
                        1,
                        1
                    ],
                    "emission": [
                        0,
                        0,
                        0,
                        1
                    ],
                    "shininess": 10,
                    "specular": [
                        0.8980389833450317,
                        0.8980389833450317,
                        0.8980389833450317,
                        1
                    ]
                }
            },
            "name": "_1_-_Default"
        }
    },
    "meshes": {
        "geom-CD": {
            "name": "CD",
            "primitives": [
                {
                    "attributes": {
                        "NORMAL": "accessor_25",
                        "POSITION": "accessor_23",
                        "TEXCOORD_0": "accessor_27"
                    },
                    "indices": "accessor_21",
                    "material": "_1_-_Default",
                    "primitive": 4
                }
            ]
        }
    },
    "nodes": {
        "node-CD": {
            "children": [
                "node_2"
            ],
            "matrix": [
                -0.0000000000691229296023721,
                1,
                0.00000000006912287409122087,
                0,
                0.00000000006912287409122087,
                -0.0000000000691229296023721,
                1,
                0,
                1,
                0.00000000006912287409122087,
                -0.0000000000691229296023721,
                0,
                0,
                0,
                0,
                1
            ],
            "name": "CD"
        },
        "node_0": {
            "children": [],
            "light": "EnvironmentAmbientLight",
            "matrix": [
                1,
                0,
                0,
                0,
                0,
                1,
                0,
                0,
                0,
                0,
                1,
                0,
                0,
                0,
                0,
                1
            ],
            "name": "EnvironmentAmbientLight"
        },
        "node_2": {
            "children": [],
            "matrix": [
                1,
                0,
                0,
                0,
                0,
                1,
                0,
                0,
                0,
                0,
                1,
                0,
                0.10605300217866898,
                0.41870900988578796,
                0.014180900529026985,
                1
            ],
            "meshes": [
                "geom-CD"
            ],
            "name": ""
        },
        "node_3": {
            "children": [
                "node_0",
                "node-CD"
            ],
            "matrix": [
                1,
                0,
                0,
                0,
                0,
                0,
                -1,
                0,
                0,
                1,
                0,
                0,
                0,
                0,
                0,
                1
            ],
            "name": "Y_UP_Transform"
        }
    },
    "programs": {
        "program_0": {
            "attributes": [
                "a_normal",
                "a_position"
            ],
            "fragmentShader": "input0FS",
            "vertexShader": "input0VS"
        }
    },
    "scene": "defaultScene",
    "scenes": {
        "defaultScene": {
            "nodes": [
                "node_3"
            ]
        }
    },
    "shaders": {
        "input0FS": {
            "type": 35632,
            "uri": "data:text/plain;base64,"
        },
        "input0VS": {
            "type": 35633,
            "uri": "data:text/plain;base64,"
        }
    },
    "skins": {},
    "techniques": {
        "technique0": {
            "parameters": {
                "ambient": {
                    "type": 35666
                },
                "diffuse": {
                    "type": 35666
                },
                "emission": {
                    "type": 35666
                },
                "modelViewMatrix": {
                    "semantic": "MODELVIEW",
                    "type": 35676
                },
                "normal": {
                    "semantic": "NORMAL",
                    "type": 35665
                },
                "normalMatrix": {
                    "semantic": "MODELVIEWINVERSETRANSPOSE",
                    "type": 35675
                },
                "position": {
                    "semantic": "POSITION",
                    "type": 35665
                },
                "projectionMatrix": {
                    "semantic": "PROJECTION",
                    "type": 35676
                },
                "shininess": {
                    "type": 5126
                },
                "specular": {
                    "type": 35666
                }
            },
            "pass": "defaultPass",
            "passes": {
                "defaultPass": {
                    "details": {
                        "commonProfile": {
                            "extras": {
                                "doubleSided": false
                            },
                            "lightingModel": "Phong",
                            "parameters": [
                                "ambient",
                                "diffuse",
                                "emission",
                                "modelViewMatrix",
                                "normalMatrix",
                                "projectionMatrix",
                                "shininess",
                                "specular"
                            ]
                        },
                        "type": "COLLADA-1.4.1/commonProfile"
                    },
                    "instanceProgram": {
                        "attributes": {
                            "a_normal": "normal",
                            "a_position": "position"
                        },
                        "program": "program_0",
                        "uniforms": {
                            "u_ambient": "ambient",
                            "u_diffuse": "diffuse",
                            "u_emission": "emission",
                            "u_modelViewMatrix": "modelViewMatrix",
                            "u_normalMatrix": "normalMatrix",
                            "u_projectionMatrix": "projectionMatrix",
                            "u_shininess": "shininess",
                            "u_specular": "specular"
                        }
                    },
                    "states": {
                        "enable": [
                            2884,
                            2929
                        ]
                    }
                }
            }
        }
    }
}